<svg xmlns="http://www.w3.org/2000/svg" viewBox="0 0 32 32">
  <defs>
    <linearGradient id="g" x1="0%" y1="0%" x2="100%" y2="100%">
      <stop offset="0%" stop-color="#6366f1"/>
      <stop offset="100%" stop-color="#8b5cf6"/>
    </linearGradient>
  </defs>
  <rect width="32" height="32" rx="8" fill="url(#g)"/>
  <path d="M16 7c-5 0-9 4-9 9s4 9 9 9 9-4 9-9-4-9-9-9zm0 2c3.9 0 7 3.1 7 7s-3.1 7-7 7-7-3.1-7-7 3.1-7 7-7z" fill="white" opacity="0.3"/>
  <circle cx="16" cy="16" r="3" fill="white"/>
  <path d="M16 8v5M16 19v5M8 16h5M19 16h5" stroke="white" stroke-width="1.5" stroke-linecap="round" opacity="0.5"/>
</svg>
